<svg width="32" height="32" viewBox="0 0 32 32" fill="none" xmlns="http://www.w3.org/2000/svg">
<path d="M0 10.6653V16.5895C2.01585 16.5881 4.01219 16.9859 5.87479 17.7601C7.73739 18.5343 9.4297 19.6697 10.8549 21.1015C12.2797 22.5327 13.4097 24.2319 14.1802 26.1019C14.9507 27.9719 15.3466 29.9762 15.3453 32H21.2402C21.2349 26.344 18.9955 20.9212 15.0135 16.9215C11.0314 12.9217 5.632 10.6717 0 10.6653H0Z" fill="white"/>
<path d="M29.4803 0H20.1382C24.8642 3.00768 28.8687 7.02862 31.8643 11.7743V2.39241C31.8639 1.75775 31.6125 1.14924 31.1655 0.700619C30.7184 0.252003 30.1123 -1.57043e-07 29.4803 0Z" fill="white"/>
<path d="M5.86977 0H0V5.33388C7.04017 5.34123 13.7899 8.15302 18.7681 13.1523C23.7464 18.1515 26.5465 24.9298 26.554 31.9999H31.8645V26.1052C30.6638 19.6265 27.5376 13.6648 22.8976 9.00502C18.2575 4.34523 12.321 1.20578 5.86977 0V0Z" fill="white"/>
</svg>
