<?xml version="1.0" standalone="no"?>
<!DOCTYPE svg PUBLIC "-//W3C//DTD SVG 20010904//EN"
 "http://www.w3.org/TR/2001/REC-SVG-20010904/DTD/svg10.dtd">
<svg version="1.0" xmlns="http://www.w3.org/2000/svg"
 width="186.000000pt" height="186.000000pt" viewBox="0 0 186.000000 186.000000"
 preserveAspectRatio="xMidYMid meet">

<g transform="translate(0.000000,186.000000) scale(0.100000,-0.100000)"
fill="#000000" stroke="none">
<path d="M771 1645 c-195 -55 -348 -193 -425 -383 -29 -73 -31 -84 -31 -217 0
-126 3 -147 26 -212 44 -119 102 -192 353 -443 l236 -235 50 50 50 49 -239
241 c-131 132 -253 263 -270 290 -54 85 -74 171 -69 285 4 87 9 107 41 175 49
103 129 183 234 233 77 37 79 37 203 37 124 0 126 0 203 -37 105 -50 181 -127
232 -233 34 -70 39 -89 43 -176 8 -171 -41 -279 -197 -434 l-81 -80 -176 175
c-96 96 -185 193 -197 215 -48 92 -11 213 82 262 89 47 199 19 251 -64 53 -83
48 -155 -16 -239 l-36 -47 46 -46 c54 -54 60 -52 118 30 95 137 81 312 -35
429 -67 68 -135 95 -237 95 -71 0 -94 -4 -140 -26 -124 -58 -194 -169 -193
-309 0 -133 16 -157 293 -435 l239 -240 126 125 c146 145 192 201 234 287 70
140 81 335 28 483 -62 174 -207 319 -380 380 -82 30 -285 37 -366 15z"/>
</g>
</svg>
